<?xml version="1.0" encoding="UTF-8"?>
<svg id="Camada_1" xmlns="http://www.w3.org/2000/svg" viewBox="0 0 48 48">
  <defs>
    <style>
      .cls-1 {
        fill: #871723;
      }

      .cls-2 {
        fill: #0a0d0d;
      }
    </style>
  </defs>
  <path class="cls-1" d="M39.84,32.45c-1.39,1.17-1.22,1.09-3.14,2.29-.23.15-1.83.94-2.13,1.74-.7,1.82-.19,1.31-1.25,2.38-.82.83-1.96,1.57-2.04,2.3-.14,1.23-.69,1.87-1.98,2.76-1.16.8-2.36.01-3.61,1.3-.95.98-2.61,3.21-4.88,2.72-1.93-.42-2.58-2.24-3.48-3.74-1.15-1.9-.96-2.76-2.14-3.65-1.21-.92-1.85-.34-3.1-1.31-1.06-.82-1.87-2.22-2-3.65-.13-1.49.57-1.94.14-2.84-.5-1.02-1.59-.8-2.46-1.82-.8-.93-.74-2.14-.68-3.58.14-3.25,1.4-3.98,1.26-6.53-.06-1.05-.53-.49-1.09-3.5-.45-2.44-.11-3.09-.06-3.55.22-2.05,1.23-3.54,1.4-3.48.19.07-.94,2.1-.2,4.31.1.31.69,2.06,1.98,2.26.91.14,1.68-.57,1.89-.76.95-.87,1.03-2.1,1.04-2.34.05-1.17-.04-.25-.29-2.1-.01-.1-.96-2.07-.75-2.12.23-.06,1.14.96,1.51,2.31.4,1.43.61,2.2.54,3.27-.12,1.83-1.01,3.26-1.25,3.65-.77,1.22-1.4,1.51-1.52,2.55-.03.29-.14,1.25.53,1.8.49.4,1.26.47,1.77.16.76-.46.76-1.64.76-2.28,0-1.25-.47-1.57-.23-2.4.25-.9,1.07-1.51,1.22-1.41.13.08-.31.62-.3,1.45,0,.83.45,1.05,1.19,2.53.71,1.41.7,1.97,1.14,2.06.53.1,1.16-.58,1.45-1.18.54-1.13.05-2.37-.31-3.24-.72-1.75-1.28-1.51-1.87-2.94-.54-1.32-.42-.69-.82-3.82-.19-1.53,1-3.17,1-3.12,0,.11-.33,2.93.12,3.78.04.08.72.46,1.15.21.8-.46.15-2.07.64-3.75.36-1.24,1.17-1.91,2.7-3.19,2.55-2.13,2.64-2.13,5.18-3.44,1.5-.78,2.67-2.52,2.67-2.52-.11.29-.2,1.16-.51,1.88-.42.94-.8,1.3-1.27,1.59,0,0-3.07,1.89-5.1,4.93-.52.78-.92,1.59-1.2,2.49-.31,1-.18,2.23.44,3.54.23.48.37.67.9.58s.74-.81,1.12-2.3c.52-2.05.61-2.9,1.33-3.95.47-.69,1.56-1.83,1.72-1.73.22.14-1.29,1.96-1.33,3.83-.03,1.2.38,1.29.55,3.04.14,1.45.21,2.19-.14,3-.56,1.3-1.51,1.18-2.77,3.11-.55.84-.66,1.31-.62,1.75.06.69.51,1.53,1.21,1.68.72.15,1.37-.51,1.93-1.08,1.07-1.1,1.48-2.32,1.59-2.69.75-2.4-.15-2.94.33-5.31.55-2.75,2.31-4.73,2.39-4.83.85-.95,1.63-1.39,2.61-2.89.77-1.17.91-1.83.95-2.19.2-1.55-.29-1.67-.16-1.73.15-.07.82.43.9,2.38.04,1.04.04,1.77-.19,2.31-.65,1.58-1.33,1.62-2.4,3.44-.51.87-.75,1.56-1.22,2.95-.49,1.43-.57,2.09-.28,2.69.04.09.39.81.89.81.64,0,1.12-1.18,1.4-1.86.5-1.22.28-1.55.74-2.59.51-1.16,1.89-1.49,2.04-1.41.18.1-1.35.76-1.41,2.59-.05,1.62,1.03,1.68.97,3.33-.03.72-.22,1.96-1.06,3.46-.48.86-.4,1.51-.09,1.91.3.39,1.01.59,1.58.4,1.34-.45.47-2.04,2.46-4.7.17-.23.97-1.33,1.5-1.83,1.21-1.13,2.35-1.9,2.52-1.7.18.22-1.3,1.04-2.36,3.33-.38.82.08.78-.78,3.51-.65,2.06-.98,3.08-1.42,3.8-.52.86-.9,1.16-1.1,2.02-.06.26-.42,1.91.35,2.33.46.25,1.19,0,1.8-.53.95-.48,1.18-1.09,1.37-1.52.5-1.15-.23-.88.5-3.17.39-1.21,1.28-1.76,1.28-1.76.28-.03-.43,1.01-.34,2.52.09,1.36-.02,3.83-.26,4.79"/>
  <path class="cls-2" d="M33.08,36.42c-2.21,3.43-11.53,10.36-11.53,10.36,0,0-7.84-9.19-8.71-13.18-2.28-10.46,9.27-10.86,10.51-3.89,5.36-11.01,16.12-3.2,9.73,6.7Z"/>
</svg>